<?xml version="1.0" encoding="utf-8"?>
<!-- Generator: Adobe Illustrator 18.1.1, SVG Export Plug-In . SVG Version: 6.00 Build 0)  -->
<svg version="1.1" fill="#324D5C" xmlns="http://www.w3.org/2000/svg" xmlns:xlink="http://www.w3.org/1999/xlink" x="0px" y="0px"
	 viewBox="0 0 18.285 18.285" style="enable-background:new 0 0 18.285 18.285;" xml:space="preserve">

		<path  d="M0.375,3.965h8.194l1.649-1.72c0,0-7.574,0-8.82,0c-1.245,0-1.037,0.898-1.037,0.898L0.375,3.965z"
			/>
		<path  d="M17.589,2.142h-5.24c-0.199,0-0.389,0.085-0.521,0.234L9.785,4.689h-9.09C0.311,4.689,0,5,0,5.384
			v10.064c0,0.385,0.312,0.695,0.695,0.695H17.59c0.384,0,0.695-0.311,0.695-0.695V2.837C18.284,2.454,17.973,2.142,17.589,2.142z
			 M16.894,14.753H1.389V6.078h8.709c0.198,0,0.389-0.085,0.52-0.235l2.042-2.311h4.233L16.894,14.753L16.894,14.753z"/>
		<path  d="M10.818,7.344c-0.047-0.004-0.097-0.008-0.147-0.008c-0.563,0-1.207,0.296-1.528,0.851
			C8.822,7.632,8.178,7.336,7.616,7.336c-0.051,0-0.101,0.003-0.147,0.008C6.867,7.408,6.447,7.606,6.186,7.948
			C5.928,8.287,5.844,8.756,5.94,9.344c0.239,1.458,2.979,3.833,3.096,3.934c0.034,0.03,0.076,0.044,0.12,0.044
			c0.042,0,0.085-0.014,0.119-0.044c0.115-0.101,2.834-2.476,3.071-3.934c0.097-0.586,0.014-1.055-0.244-1.395
			C11.839,7.606,11.419,7.41,10.818,7.344z"/>

</svg>
