<?xml version="1.0" encoding="iso-8859-1"?>
<!-- Generator: Adobe Illustrator 16.0.0, SVG Export Plug-In . SVG Version: 6.00 Build 0)  -->
<!DOCTYPE svg PUBLIC "-//W3C//DTD SVG 1.1//EN" "http://www.w3.org/Graphics/SVG/1.1/DTD/svg11.dtd">
<svg version="1.1" xmlns="http://www.w3.org/2000/svg" xmlns:xlink="http://www.w3.org/1999/xlink" x="0px" y="0px"
	  viewBox="0 0 612.006 612.006" style="enable-background:new 0 0 612.006 612.006;"
	 xml:space="preserve" fill="#324D5C">

		<path d="M563.455,320.072H461.533c-3.466,0-6.33,2.711-6.517,6.176c-2.003,37.367-8.722,74.299-19.963,109.768
			c-0.525,1.654-0.368,3.445,0.431,4.979c0.796,1.541,2.177,2.695,3.828,3.215c23,7.252,45.469,16.426,66.779,27.268
			c0.943,0.48,1.958,0.711,2.956,0.711c1.952,0,3.864-0.877,5.133-2.496c32.431-41.27,51.722-90.58,55.784-142.588
			c0.141-1.814-0.479-3.602-1.717-4.939C567.011,320.828,565.272,320.072,563.455,320.072z M507.159,457.416
			c-18.573-9.164-37.952-17.1-57.748-23.658c9.834-32.654,15.966-66.441,18.266-100.635h88.626
			C551.502,378.211,534.61,420.947,507.159,457.416z"/>
		<path d="M180.091,478.682c-1.292-3.234-4.898-4.879-8.193-3.75c-14.909,5.15-28.59,10.674-41.815,16.887
			c-1.978,0.93-3.361,2.787-3.684,4.949c-0.323,2.16,0.463,4.338,2.082,5.803c21.869,19.746,46.703,35.596,73.822,47.107
			c0.826,0.35,1.69,0.518,2.545,0.518c1.84,0,3.642-0.775,4.911-2.225c1.856-2.117,2.144-5.188,0.714-7.615
			C198.608,520.227,188.386,499.477,180.091,478.682z M144.818,499.463c8.197-3.586,16.638-6.939,25.517-10.137
			c5.541,13.328,11.841,26.615,18.831,39.719C173.376,520.791,158.536,510.896,144.818,499.463z"/>
		<path d="M283.413,453.139c-23.444,1.299-47.065,4.67-70.212,10.008c-1.863,0.434-3.446,1.66-4.324,3.357
			c-0.884,1.701-0.972,3.701-0.248,5.473c13.427,32.848,31.403,64.254,53.428,93.348c1.038,1.369,2.574,2.277,4.278,2.518
			c4.999,0.719,10.333,1.459,15.718,1.961c0.202,0.02,0.404,0.029,0.607,0.029c1.605,0,3.165-0.594,4.369-1.68
			c1.354-1.221,2.138-2.953,2.157-4.777l1.116-103.654c0.02-1.809-0.711-3.537-2.013-4.787
			C286.977,453.691,285.218,453.035,283.413,453.139z M276.208,556.023c-1.804-0.225-3.596-0.473-5.358-0.717
			c-19.017-25.461-34.845-52.701-47.13-81.115c17.682-3.727,35.603-6.264,53.451-7.572L276.208,556.023z"/>
		<path d="M166.69,439.613c-10.732-36.826-16.674-74.908-17.669-113.186c-0.088-3.537-2.985-6.355-6.522-6.355H48.548
			c-1.821,0-3.557,0.756-4.793,2.094c-1.233,1.338-1.854,3.129-1.713,4.943c4.069,52.02,23.363,101.326,55.803,142.59
			c1.272,1.617,3.185,2.492,5.133,2.492c1.005,0,2.02-0.232,2.962-0.715c17.421-8.898,36.467-16.928,56.613-23.865
			C165.842,446.473,167.666,442.955,166.69,439.613z M104.86,457.414c-27.458-36.461-44.354-79.195-49.153-124.291h80.478
			c1.403,35.201,6.872,70.189,16.286,104.197C135.728,443.318,119.759,450.059,104.86,457.414z"/>
		<path d="M133.623,117.187c14.465,6.663,30.31,12.761,47.107,18.132c0.659,0.209,1.328,0.31,1.987,0.31
			c2.493,0,4.846-1.436,5.932-3.811c10.311-22.534,22.88-44.716,37.358-65.925c1.589-2.333,1.501-5.42-0.215-7.658
			c-1.723-2.245-4.692-3.106-7.345-2.18c-31.987,11.277-61.05,28.195-86.384,50.289c-1.671,1.452-2.486,3.654-2.17,5.844
			C130.21,114.38,131.613,116.263,133.623,117.187z M203.953,75.845c-9.175,14.778-17.444,29.925-24.707,45.257
			c-10.699-3.573-20.965-7.443-30.662-11.567C165.509,95.955,184.046,84.678,203.953,75.845z"/>
		<path d="M547.919,118.753c-8.855-11.42-18.618-22.365-29.047-32.548c-45.11-43.59-101.495-71.961-163.07-82.051
			c-9.949-1.612-20.002-2.777-29.896-3.465C318.888,0.225,312.375,0,305.996,0c-14.65,0-29.54,1.083-44.246,3.221
			c-63.67,9.198-121.97,37.893-168.611,83c-10.481,10.193-20.27,21.141-29.103,32.532C22.147,172.804,0.004,237.548,0.004,305.979
			c0,67.048,21.288,130.718,61.566,184.126c8.826,11.711,18.429,22.727,28.531,32.73c41.841,41.666,94.398,70.17,151.993,82.449
			c21.072,4.457,42.572,6.721,63.902,6.721h0.193c13.515,0,27.062-0.941,41.43-2.883c65.518-8.926,127.406-39.57,174.249-86.268
			c10.129-10.01,19.738-21.029,28.552-32.744c40.287-53.35,61.582-117.02,61.582-184.129
			C612.004,237.528,589.842,172.784,547.919,118.753z M540,482.252c-8.441,11.217-17.627,21.754-27.327,31.34
			c-44.859,44.719-104.103,74.051-166.807,82.592c-13.776,1.861-26.753,2.768-39.678,2.768h-0.193
			c-20.426,0-41.012-2.166-61.19-6.438c-55.128-11.75-105.437-39.041-145.509-78.938c-9.668-9.58-18.857-20.119-27.308-31.332
			c-38.552-51.123-58.933-112.076-58.933-176.265c0-65.514,21.196-127.491,61.298-179.232c8.458-10.915,17.842-21.405,27.873-31.162
			c44.644-43.175,100.45-70.643,161.399-79.447c14.086-2.049,28.346-3.086,42.37-3.086c6.085,0,12.315,0.215,19.023,0.662
			c9.482,0.656,19.135,1.775,28.682,3.325c58.933,9.655,112.912,36.816,156.075,78.526c9.978,9.74,19.339,20.234,27.826,31.185
			c40.135,51.728,61.348,113.701,61.348,179.231C598.953,370.227,578.569,431.18,540,482.252z"/>
		<path d="M48.548,291.916h94.913c3.439,0,6.288-2.666,6.513-6.099c2.607-39.73,10.444-78.572,23.301-115.447
			c0.578-1.657,0.463-3.475-0.316-5.048c-0.78-1.569-2.16-2.764-3.831-3.309c-21.336-6.94-41.737-15.29-60.629-24.818
			c-2.731-1.377-6.065-0.666-8.004,1.713c-34.075,41.952-54.292,92.427-58.453,145.976c-0.141,1.814,0.479,3.602,1.716,4.94
			C44.991,291.155,46.727,291.916,48.548,291.916z M107.382,151.213c16.246,7.929,33.501,15.016,51.434,21.127
			c-11.349,34.206-18.546,69.981-21.424,106.523H55.697C60.63,232.301,78.397,188.404,107.382,151.213z"/>
		<path d="M287.521,41.838l-4.262,0.434c-1.674,0.153-3.224,0.946-4.327,2.215c-24.09,27.696-44.504,58.838-60.668,92.558
			c-0.868,1.811-0.855,3.919,0.039,5.717c0.891,1.801,2.562,3.087,4.529,3.495c21.291,4.396,42.816,7.117,63.97,8.092
			c0.098,0.003,0.203,0.006,0.3,0.006c1.664,0,3.27-0.633,4.483-1.781c1.289-1.217,2.023-2.908,2.042-4.679l1.038-99.495
			c0.02-1.847-0.747-3.619-2.108-4.872C291.192,42.278,289.384,41.665,287.521,41.838z M280.646,140.938
			c-15.535-0.996-31.243-2.95-46.875-5.841c13.293-26.326,29.298-50.945,47.705-73.394L280.646,140.938z"/>
		<path d="M325.075,424.033c24.782,1.057,49.737,4.277,74.181,9.566c0.463,0.098,0.927,0.148,1.384,0.148
			c2.776,0,5.318-1.779,6.202-4.518c10.645-32.861,17.104-67.26,19.203-102.242c0.107-1.797-0.528-3.557-1.762-4.863
			c-1.233-1.309-2.953-2.053-4.751-2.053h-93.155c-3.576,0-6.483,2.877-6.525,6.453l-1.024,90.916
			C318.787,420.967,321.554,423.883,325.075,424.033z M332.831,333.123h79.715c-2.277,29.523-7.77,58.561-16.354,86.498
			c-21.219-4.297-42.771-7.086-64.241-8.311L332.831,333.123z"/>
		<path d="M435.954,171.117c11.421,36.8,17.979,75.333,19.49,114.524c0.134,3.501,3.015,6.275,6.52,6.275h101.491
			c1.82,0,3.557-0.757,4.79-2.095c1.236-1.334,1.856-3.126,1.717-4.94c-4.181-53.594-24.392-104.072-58.443-145.976
			c-1.929-2.375-5.26-3.08-7.988-1.716c-20.224,10.148-41.531,18.821-63.324,25.778C436.79,164.056,434.893,167.697,435.954,171.117
			z M504.624,151.207c28.965,37.155,46.732,81.055,51.676,127.657h-88.101c-1.87-35.997-7.887-71.414-17.917-105.459
			C468.9,167.166,487.133,159.719,504.624,151.207z"/>
		<path d="M421.871,132.108c1.038,2.486,3.452,4.01,6.023,4.01c0.649,0,1.312-0.094,1.965-0.303
			c16.752-5.283,33.073-11.551,48.507-18.625c2.017-0.924,3.43-2.81,3.739-5.009c0.317-2.196-0.505-4.402-2.183-5.854
			c-25.164-21.823-53.549-38.503-84.361-49.584c-2.623-0.95-5.55-0.117-7.292,2.052c-1.746,2.173-1.922,5.211-0.438,7.567
			C400.812,86.965,412.265,109.084,421.871,132.108z M463.392,109.542c-10.301,4.392-20.955,8.409-31.827,12.008
			c-6.744-15.601-14.317-30.776-22.618-45.339C428.329,84.913,446.555,96.069,463.392,109.542z"/>
		<path d="M328.194,154.248c0.114,0,0.232-0.003,0.347-0.01c19.698-1.048,39.736-3.603,59.552-7.583
			c1.932-0.388,3.586-1.628,4.497-3.377c0.913-1.746,0.988-3.811,0.202-5.619c-14.406-33.185-33.133-64.379-55.663-92.724
			c-1.1-1.383-2.708-2.261-4.467-2.434l-0.627-0.065c-0.76-0.075-1.523-0.157-2.311-0.206c-1.771-0.101-3.553,0.5-4.871,1.716
			c-1.318,1.217-2.079,2.924-2.099,4.718l-1.086,98.986c-0.02,1.804,0.708,3.537,2.01,4.783
			C324.895,153.601,326.514,154.248,328.194,154.248z M335.637,64.44c16.348,22.149,30.382,45.936,41.851,70.95
			c-14.229,2.565-28.534,4.369-42.692,5.381L335.637,64.44z"/>
		<path d="M326.768,291.916h93.155c1.778,0,3.475-0.725,4.705-2.003c1.229-1.286,1.886-3.012,1.813-4.787
			c-1.48-36.562-7.739-72.607-18.602-107.133c-1.015-3.214-4.308-5.12-7.603-4.418c-24.339,5.257-48.808,8.497-72.732,9.636
			c-3.455,0.167-6.18,2.992-6.216,6.451l-1.044,95.66c-0.02,1.743,0.659,3.42,1.886,4.66
			C323.359,291.22,325.023,291.916,326.768,291.916z M334.27,195.909c20.742-1.286,41.824-4.085,62.848-8.35
			c8.811,29.553,14.168,60.205,15.95,91.301h-79.702L334.27,195.909z"/>
		<path d="M286.917,183.311c-25.392-1.07-51.562-4.558-77.77-10.376c-3.217-0.718-6.461,1.08-7.563,4.183
			c-12.305,34.633-19.904,70.901-22.596,107.795c-0.13,1.811,0.496,3.593,1.729,4.917c1.236,1.328,2.966,2.085,4.78,2.085h100.134
			c3.58,0,6.487-2.881,6.526-6.458l1.015-95.559C293.206,186.375,290.438,183.458,286.917,183.311z M279.175,278.864h-86.596
			c2.842-31.4,9.365-62.274,19.424-91.964c22.893,4.797,45.73,7.86,68.046,9.136L279.175,278.864z"/>
		<path d="M285.208,320.072H184.564c-1.762,0-3.452,0.715-4.679,1.973c-1.23,1.268-1.896,2.973-1.844,4.736
			c1.002,35.592,6.529,70.836,16.426,104.748c0.829,2.834,3.426,4.695,6.262,4.695c0.506,0,1.021-0.061,1.537-0.184
			c27.19-6.572,54.857-10.562,82.23-11.861c3.452-0.166,6.18-2.992,6.216-6.447l1.018-91.066c0.02-1.742-0.659-3.422-1.886-4.662
			C288.624,320.77,286.95,320.072,285.208,320.072z M277.732,411.48c-24.133,1.484-48.439,4.988-72.418,10.441
			c-7.942-28.867-12.634-58.678-13.979-88.801h87.274L277.732,411.48z"/>
		<path d="M391.333,463.934c-0.91-1.76-2.571-3.012-4.513-3.404c-19.701-3.961-40.425-6.467-61.585-7.453
			c-1.775-0.061-3.495,0.559-4.783,1.775c-1.289,1.217-2.026,2.904-2.047,4.676l-1.109,104.102c-0.02,1.953,0.832,3.809,2.323,5.064
			c1.185,1,2.676,1.535,4.203,1.535c0.392,0,0.79-0.037,1.182-0.109c0.212-0.039,0.382-0.059,0.567-0.078
			c0.013,0,0.339-0.041,0.355-0.045c1.625-0.205,3.109-1.018,4.164-2.271c24.978-29.719,45.636-62.74,61.399-98.137
			C392.302,467.77,392.24,465.695,391.333,463.934z M330.534,546.375l0.852-79.891c15.28,0.957,30.271,2.734,44.745,5.307
			C363.696,498.23,348.409,523.23,330.534,546.375z"/>
		<path d="M481.919,491.822c-17.261-8.135-35.204-15.096-53.337-20.682c-3.197-0.988-6.62,0.607-7.929,3.688
			c-10.719,25.242-23.992,49.807-39.446,73c-1.543,2.316-1.448,5.357,0.235,7.568c1.26,1.654,3.194,2.576,5.194,2.576
			c0.679,0,1.367-0.105,2.036-0.326c35.204-11.564,67.106-30.096,94.829-55.076c1.621-1.463,2.404-3.639,2.088-5.799
			S483.897,492.754,481.919,491.822z M402.557,538.594c10.448-17.203,19.741-35.02,27.755-53.217
			c12.465,4.049,24.815,8.764,36.875,14.07C447.577,515.795,425.927,528.904,402.557,538.594z"/>
	
</svg>
